<svg width="88" height="14" viewBox="0 0 88 14" fill="none" xmlns="http://www.w3.org/2000/svg">
<path d="M7.72 4.34C7.84 4.484 7.924 4.6 7.972 4.688C8.02 4.776 8.044 4.86 8.044 4.94C8.044 5.036 7.98 5.148 7.852 5.276C7.732 5.404 7.612 5.468 7.492 5.468C7.332 5.468 7.204 5.444 7.108 5.396C7.012 5.348 6.932 5.272 6.868 5.168C6.74 4.976 6.584 4.812 6.4 4.676C6.216 4.532 5.928 4.46 5.536 4.46C5.2 4.46 4.816 4.536 4.384 4.688C3.96 4.84 3.656 5.028 3.472 5.252C3.312 5.452 3.172 5.756 3.052 6.164C2.94 6.572 2.884 6.968 2.884 7.352C2.884 7.816 2.984 8.244 3.184 8.636C3.392 9.02 3.688 9.328 4.072 9.56C4.464 9.792 4.932 9.908 5.476 9.908C5.772 9.908 6.076 9.852 6.388 9.74C6.708 9.62 6.984 9.428 7.216 9.164H7.204C7.348 9.012 7.528 8.936 7.744 8.936C7.872 8.936 7.992 8.992 8.104 9.104C8.224 9.216 8.284 9.328 8.284 9.44C8.284 9.56 8.264 9.668 8.224 9.764C8.192 9.852 8.128 9.952 8.032 10.064C7.704 10.432 7.316 10.684 6.868 10.82C6.42 10.956 5.884 11.024 5.26 11.024C4.708 11.024 4.148 10.892 3.58 10.628C3.02 10.364 2.588 10.044 2.284 9.668C2.124 9.436 1.968 9.104 1.816 8.672C1.672 8.232 1.6 7.876 1.6 7.604C1.6 6.908 1.704 6.248 1.912 5.624C2.128 4.992 2.448 4.488 2.872 4.112C3.152 3.856 3.556 3.664 4.084 3.536C4.612 3.408 5.096 3.344 5.536 3.344C6.072 3.344 6.492 3.42 6.796 3.572C7.108 3.716 7.416 3.972 7.72 4.34ZM10.7989 3.392C10.7989 3.6 10.7949 3.844 10.7869 4.124C10.7789 4.396 10.7709 4.604 10.7629 4.748C10.7389 5.156 10.7269 5.564 10.7269 5.972C10.7269 6.276 10.7389 6.592 10.7629 6.92C11.0109 6.56 11.2789 6.296 11.5669 6.128C11.8549 5.96 12.2029 5.876 12.6109 5.876C12.9069 5.876 13.1829 6.008 13.4389 6.272C13.6949 6.536 13.8589 6.844 13.9309 7.196C13.9549 7.508 13.9669 7.888 13.9669 8.336C13.9669 8.624 13.9829 9 14.0149 9.464C14.0309 9.64 14.0749 9.804 14.1469 9.956C14.2269 10.108 14.3389 10.184 14.4829 10.184C14.5549 10.184 14.6109 10.18 14.6509 10.172C14.6989 10.164 14.7429 10.16 14.7829 10.16C14.8949 10.16 14.9709 10.188 15.0109 10.244C15.0589 10.3 15.0829 10.38 15.0829 10.484C15.0829 10.676 14.9869 10.82 14.7949 10.916C14.6029 11.012 14.4269 11.06 14.2669 11.06C13.6909 11.06 13.2949 10.82 13.0789 10.34C12.9589 10.068 12.8829 9.716 12.8509 9.284C12.8189 8.844 12.8029 8.332 12.8029 7.748C12.8029 7.172 12.6069 6.884 12.2149 6.884C11.9989 6.884 11.7789 7 11.5549 7.232C11.3389 7.456 11.1589 7.756 11.0149 8.132C10.8709 8.5 10.7989 8.884 10.7989 9.284L10.8109 10.532C10.8109 10.708 10.7429 10.84 10.6069 10.928C10.4709 11.008 10.3429 11.048 10.2229 11.048C10.0469 11.048 9.88694 10.996 9.74294 10.892C9.59894 10.78 9.52694 10.656 9.52694 10.52C9.58294 9.92 9.61094 8.916 9.61094 7.508C9.61094 7.252 9.59094 6.304 9.55094 4.664L9.51494 3.56C9.51494 3.384 9.59494 3.232 9.75494 3.104C9.91494 2.968 10.0949 2.9 10.2949 2.9C10.4709 2.9 10.5989 2.94 10.6789 3.02C10.7589 3.1 10.7989 3.224 10.7989 3.392ZM21.264 10.424C21.264 10.6 21.168 10.748 20.976 10.868C20.792 10.988 20.62 11.048 20.46 11.048C20.156 11.048 19.912 11.012 19.728 10.94C19.552 10.86 19.388 10.716 19.236 10.508C19.028 10.692 18.744 10.832 18.384 10.928C18.024 11.016 17.692 11.06 17.388 11.06C16.892 11.06 16.484 10.928 16.164 10.664C15.844 10.392 15.684 9.996 15.684 9.476C15.684 9.252 15.744 9.048 15.864 8.864C15.984 8.672 16.148 8.504 16.356 8.36C16.588 8.208 16.852 8.092 17.148 8.012C17.444 7.924 17.752 7.88 18.072 7.88C18.24 7.88 18.44 7.912 18.672 7.976C18.904 8.04 19.084 8.108 19.212 8.18V7.988C19.212 7.556 19.108 7.26 18.9 7.1C18.692 6.932 18.356 6.848 17.892 6.848C17.756 6.848 17.62 6.876 17.484 6.932C17.356 6.988 17.208 7.064 17.04 7.16C16.816 7.28 16.604 7.34 16.404 7.34C16.332 7.34 16.264 7.292 16.2 7.196C16.136 7.092 16.104 7 16.104 6.92C16.104 6.688 16.212 6.488 16.428 6.32C16.652 6.152 16.916 6.028 17.22 5.948C17.524 5.86 17.796 5.816 18.036 5.816C18.276 5.816 18.552 5.864 18.864 5.96C19.176 6.048 19.432 6.172 19.632 6.332C19.872 6.54 20.056 6.784 20.184 7.064C20.32 7.336 20.388 7.636 20.388 7.964C20.388 8.068 20.38 8.224 20.364 8.432C20.348 8.656 20.34 8.848 20.34 9.008C20.34 9.08 20.332 9.188 20.316 9.332C20.3 9.508 20.292 9.648 20.292 9.752C20.292 9.848 20.328 9.932 20.4 10.004C20.472 10.068 20.556 10.1 20.652 10.1L20.988 10.088C21.076 10.088 21.144 10.12 21.192 10.184C21.24 10.248 21.264 10.328 21.264 10.424ZM17.4 10.112C17.744 10.112 18.032 10.076 18.264 10.004C18.496 9.932 18.776 9.8 19.104 9.608C19.136 9.472 19.156 9.292 19.164 9.068C18.724 8.86 18.36 8.756 18.072 8.756C17.744 8.756 17.452 8.816 17.196 8.936C16.94 9.056 16.812 9.268 16.812 9.572C16.812 9.724 16.876 9.852 17.004 9.956C17.132 10.06 17.264 10.112 17.4 10.112ZM22.0618 6.824C21.9498 6.808 21.8578 6.764 21.7858 6.692C21.7218 6.612 21.6898 6.516 21.6898 6.404C21.6898 6.26 21.7458 6.14 21.8578 6.044C21.8818 6.02 21.9218 6 21.9778 5.984C22.0338 5.96 22.0778 5.94 22.1098 5.924C22.2858 5.868 22.3978 5.824 22.4458 5.792C22.6298 5.68 22.7538 5.496 22.8178 5.24C22.8818 4.936 22.9218 4.728 22.9378 4.616C22.9538 4.44 23.0098 4.308 23.1058 4.22C23.2098 4.124 23.3378 4.076 23.4898 4.076C23.6898 4.076 23.8298 4.128 23.9098 4.232C23.9898 4.336 24.0298 4.528 24.0298 4.808C24.0298 5.176 23.9418 5.524 23.7658 5.852C23.8778 5.852 24.0618 5.844 24.3178 5.828C24.7018 5.812 24.9698 5.804 25.1218 5.804C25.2578 5.804 25.3738 5.84 25.4698 5.912C25.5738 5.976 25.6258 6.072 25.6258 6.2C25.6258 6.504 25.4858 6.684 25.2058 6.74C24.9498 6.812 24.4858 6.856 23.8138 6.872C23.7578 7.656 23.7298 8.276 23.7298 8.732C23.7298 9.012 23.7418 9.212 23.7658 9.332C23.8138 9.58 23.8938 9.764 24.0058 9.884C24.1258 9.996 24.3018 10.052 24.5338 10.052C24.6458 10.052 24.8138 10.024 25.0378 9.968C25.1738 9.928 25.2818 9.908 25.3618 9.908C25.4658 9.908 25.5458 9.944 25.6018 10.016C25.6578 10.088 25.6858 10.184 25.6858 10.304C25.6858 10.52 25.5458 10.7 25.2658 10.844C24.9858 10.98 24.6538 11.048 24.2698 11.048C24.0298 11.048 23.7938 10.992 23.5618 10.88C23.3298 10.76 23.1338 10.616 22.9738 10.448C22.9418 10.432 22.8938 10.344 22.8298 10.184C22.7738 10.024 22.7178 9.848 22.6618 9.656C22.6378 9.56 22.6258 9.328 22.6258 8.96C22.6258 8.608 22.6498 8 22.6978 7.136L22.7098 6.872C22.6538 6.872 22.5498 6.868 22.3978 6.86C22.2458 6.844 22.1338 6.832 22.0618 6.824ZM33.8101 8.888L33.8581 7.964C33.8581 7.628 33.8181 7.38 33.7381 7.22C33.6661 7.06 33.4981 6.98 33.2341 6.98C32.7301 6.98 32.3501 7.264 32.0941 7.832C31.8381 8.392 31.7101 9.212 31.7101 10.292C31.7101 10.34 31.7101 10.44 31.7101 10.592C31.7181 10.736 31.6941 10.848 31.6381 10.928C31.5901 11.008 31.5021 11.048 31.3741 11.048C31.0541 11.048 30.8381 10.96 30.7261 10.784C30.6141 10.608 30.5581 10.348 30.5581 10.004C30.5581 9.828 30.5821 9.468 30.6301 8.924C30.6701 8.54 30.6901 8.272 30.6901 8.12C30.6901 7.72 30.6301 7.428 30.5101 7.244C30.3901 7.06 30.1821 6.968 29.8861 6.968C29.5421 6.968 29.2581 7.14 29.0341 7.484C28.8101 7.828 28.6461 8.256 28.5421 8.768C28.4381 9.272 28.3861 9.772 28.3861 10.268C28.3861 10.5 28.3461 10.688 28.2661 10.832C28.1941 10.976 28.0541 11.048 27.8461 11.048C27.6941 11.048 27.5421 11.008 27.3901 10.928C27.2381 10.84 27.1621 10.724 27.1621 10.58C27.1621 10.428 27.1781 10.276 27.2101 10.124C27.2501 9.876 27.2821 9.512 27.3061 9.032C27.3301 8.552 27.3421 8.1 27.3421 7.676C27.3421 7.484 27.2941 7.3 27.1981 7.124C27.1101 6.94 27.0021 6.848 26.8741 6.848C26.8421 6.848 26.7821 6.864 26.6941 6.896C26.6141 6.928 26.5541 6.944 26.5141 6.944C26.4101 6.944 26.3141 6.896 26.2261 6.8C26.1461 6.704 26.1061 6.624 26.1061 6.56C26.1061 6.36 26.2021 6.192 26.3941 6.056C26.5941 5.912 26.8021 5.84 27.0181 5.84C27.3141 5.84 27.5701 5.94 27.7861 6.14C28.0101 6.34 28.1781 6.608 28.2901 6.944C28.4821 6.6 28.7061 6.332 28.9621 6.14C29.2261 5.94 29.5461 5.84 29.9221 5.84C30.6101 5.84 31.1101 6.148 31.4221 6.764C31.6061 6.468 31.8901 6.24 32.2741 6.08C32.6661 5.92 33.0501 5.84 33.4261 5.84C33.6981 5.84 33.9581 5.924 34.2061 6.092C34.4541 6.252 34.6501 6.468 34.7941 6.74C34.9461 7.004 35.0221 7.28 35.0221 7.568C35.0221 7.752 35.0021 8.156 34.9621 8.78C34.9541 8.884 34.9461 9 34.9381 9.128C34.9301 9.248 34.9261 9.376 34.9261 9.512C34.9261 9.68 34.9661 9.816 35.0461 9.92C35.1341 10.024 35.2461 10.088 35.3821 10.112C35.6541 10.176 35.7901 10.288 35.7901 10.448C35.7901 10.632 35.7061 10.78 35.5381 10.892C35.3701 10.996 35.1821 11.048 34.9741 11.048C34.5821 11.048 34.2821 10.936 34.0741 10.712C33.8741 10.48 33.7741 10.148 33.7741 9.716L33.8101 8.888ZM41.2116 11.048C40.9396 11.048 40.7316 11.008 40.5876 10.928C40.4436 10.84 40.2876 10.68 40.1196 10.448C39.9116 10.632 39.5996 10.78 39.1836 10.892C38.7756 11.004 38.4236 11.06 38.1276 11.06C37.6396 11.06 37.2436 10.928 36.9396 10.664C36.6436 10.392 36.4956 9.996 36.4956 9.476C36.4956 9.252 36.5556 9.048 36.6756 8.864C36.8036 8.672 36.9676 8.504 37.1676 8.36C37.3916 8.208 37.6556 8.088 37.9596 8C38.2716 7.912 38.5556 7.868 38.8116 7.868C39.2436 7.868 39.6276 7.908 39.9636 7.988V7.976C39.9636 7.544 39.8556 7.248 39.6396 7.088C39.4316 6.92 39.0956 6.836 38.6316 6.836C38.3356 6.836 38.0796 6.968 37.8636 7.232C37.7836 7.336 37.6156 7.388 37.3596 7.388C37.2316 7.388 37.1356 7.336 37.0716 7.232C37.0156 7.12 36.9876 7.008 36.9876 6.896C36.9876 6.664 37.0836 6.464 37.2756 6.296C37.4756 6.128 37.7156 6.004 37.9956 5.924C38.2756 5.836 38.5356 5.792 38.7756 5.792C39.0076 5.792 39.2836 5.84 39.6036 5.936C39.9236 6.032 40.1836 6.16 40.3836 6.32C40.6236 6.528 40.8076 6.772 40.9356 7.052C41.0716 7.324 41.1396 7.624 41.1396 7.952C41.1396 8.056 41.1316 8.212 41.1156 8.42C41.0996 8.66 41.0916 8.856 41.0916 9.008C41.0916 9.08 41.0836 9.172 41.0676 9.284C41.0516 9.428 41.0436 9.548 41.0436 9.644C41.0436 9.748 41.0756 9.848 41.1396 9.944C41.2036 10.04 41.2916 10.12 41.4036 10.184C41.5076 10.24 41.5756 10.3 41.6076 10.364C41.6396 10.428 41.6556 10.5 41.6556 10.58C41.6556 10.66 41.6036 10.76 41.4996 10.88C41.4036 10.992 41.3076 11.048 41.2116 11.048ZM38.8116 8.756C38.4996 8.756 38.2236 8.816 37.9836 8.936C37.7436 9.056 37.6236 9.268 37.6236 9.572C37.6236 9.724 37.6756 9.852 37.7796 9.956C37.8916 10.06 38.0116 10.112 38.1396 10.112C38.4836 10.112 38.7716 10.076 39.0036 10.004C39.2356 9.932 39.5156 9.8 39.8436 9.608C39.8836 9.48 39.9076 9.3 39.9156 9.068C39.9156 8.98 39.9196 8.912 39.9276 8.864C39.4956 8.792 39.1236 8.756 38.8116 8.756ZM44.3339 10.52C44.3339 10.656 44.2819 10.776 44.1779 10.88C44.0739 10.984 43.9459 11.036 43.7939 11.036C43.5539 11.036 43.3779 10.992 43.2659 10.904C43.1539 10.808 43.0979 10.636 43.0979 10.388C43.0979 10.092 43.0899 9.704 43.0739 9.224C43.0579 8.824 43.0499 8.488 43.0499 8.216C43.0499 8.088 43.0579 7.92 43.0739 7.712C43.0899 7.52 43.0979 7.376 43.0979 7.28C43.0739 7.128 43.0139 7.004 42.9179 6.908C42.8219 6.804 42.6979 6.752 42.5459 6.752C42.4739 6.752 42.4139 6.72 42.3659 6.656C42.3179 6.584 42.2939 6.512 42.2939 6.44C42.2939 6.256 42.3659 6.116 42.5099 6.02C42.6619 5.924 42.8419 5.876 43.0499 5.876C43.4819 5.876 43.7819 6.132 43.9499 6.644C44.1579 6.404 44.3939 6.212 44.6579 6.068C44.9299 5.916 45.1899 5.84 45.4379 5.84C45.7339 5.84 46.0019 5.92 46.2419 6.08C46.4899 6.24 46.6139 6.456 46.6139 6.728C46.6139 6.88 46.5459 7.036 46.4099 7.196C46.2819 7.356 46.1499 7.436 46.0139 7.436C45.9419 7.436 45.8779 7.42 45.8219 7.388C45.7739 7.348 45.7139 7.292 45.6419 7.22C45.5619 7.14 45.4939 7.084 45.4379 7.052C45.3819 7.012 45.3179 6.992 45.2459 6.992C45.1179 6.992 44.9979 7.012 44.8859 7.052C44.7739 7.092 44.6979 7.14 44.6579 7.196C44.5299 7.396 44.4339 7.576 44.3699 7.736C44.3139 7.896 44.2859 8.068 44.2859 8.252C44.2859 8.388 44.2819 8.496 44.2739 8.576L44.2619 9.26C44.2619 9.364 44.2659 9.48 44.2739 9.608C44.2819 9.736 44.2899 9.832 44.2979 9.896C44.3219 10.112 44.3339 10.32 44.3339 10.52ZM52.1394 9.908C52.2754 10.012 52.3674 10.112 52.4154 10.208C52.4634 10.304 52.4874 10.424 52.4874 10.568C52.4874 10.688 52.4234 10.8 52.2954 10.904C52.1754 11 52.0634 11.048 51.9594 11.048C51.8714 11.048 51.7674 11.02 51.6474 10.964C51.5274 10.908 51.4354 10.844 51.3714 10.772C51.2834 10.7 51.1114 10.524 50.8554 10.244C50.6074 9.964 50.4234 9.744 50.3034 9.584C50.0154 9.224 49.8714 9.044 49.8714 9.044L49.4514 8.528L48.6834 9.152L48.7314 10.46C48.7314 10.676 48.6754 10.828 48.5634 10.916C48.4594 11.004 48.3554 11.048 48.2514 11.048C48.0994 11.048 47.9634 11.02 47.8434 10.964C47.7314 10.908 47.6634 10.844 47.6394 10.772C47.5514 10.452 47.5074 10.032 47.5074 9.512C47.5074 8.536 47.5234 7.756 47.5554 7.172C47.5874 6.444 47.6034 5.756 47.6034 5.108C47.6034 4.908 47.5794 4.632 47.5314 4.28C47.5234 4.208 47.5114 4.092 47.4954 3.932C47.4794 3.772 47.4714 3.628 47.4714 3.5C47.4714 3.316 47.5314 3.172 47.6514 3.068C47.7794 2.964 47.9434 2.912 48.1434 2.912C48.3034 2.912 48.4314 2.964 48.5274 3.068C48.6314 3.164 48.6834 3.3 48.6834 3.476C48.6834 3.74 48.6914 4.088 48.7074 4.52C48.7234 4.952 48.7314 5.268 48.7314 5.468C48.7314 5.716 48.7234 6.048 48.7074 6.464C48.6914 6.688 48.6834 6.856 48.6834 6.968C48.6834 7.32 48.6874 7.612 48.6954 7.844C48.9834 7.548 49.3674 7.204 49.8474 6.812C50.3354 6.412 50.7154 6.132 50.9874 5.972C51.2914 5.788 51.4754 5.696 51.5394 5.696C51.7074 5.696 51.8514 5.732 51.9714 5.804C52.0914 5.876 52.1514 5.984 52.1514 6.128C52.1514 6.272 52.1314 6.384 52.0914 6.464C52.0514 6.536 51.9794 6.612 51.8754 6.692L50.3274 7.82C50.6714 8.244 51.0274 8.676 51.3954 9.116C51.7634 9.548 52.0114 9.812 52.1394 9.908ZM60.7046 8.888L60.7526 7.964C60.7526 7.628 60.7126 7.38 60.6326 7.22C60.5606 7.06 60.3926 6.98 60.1286 6.98C59.6246 6.98 59.2446 7.264 58.9886 7.832C58.7326 8.392 58.6046 9.212 58.6046 10.292C58.6046 10.34 58.6046 10.44 58.6046 10.592C58.6126 10.736 58.5886 10.848 58.5326 10.928C58.4846 11.008 58.3966 11.048 58.2686 11.048C57.9486 11.048 57.7326 10.96 57.6206 10.784C57.5086 10.608 57.4526 10.348 57.4526 10.004C57.4526 9.828 57.4766 9.468 57.5246 8.924C57.5646 8.54 57.5846 8.272 57.5846 8.12C57.5846 7.72 57.5246 7.428 57.4046 7.244C57.2846 7.06 57.0766 6.968 56.7806 6.968C56.4366 6.968 56.1526 7.14 55.9286 7.484C55.7046 7.828 55.5406 8.256 55.4366 8.768C55.3326 9.272 55.2806 9.772 55.2806 10.268C55.2806 10.5 55.2406 10.688 55.1606 10.832C55.0886 10.976 54.9486 11.048 54.7406 11.048C54.5886 11.048 54.4366 11.008 54.2846 10.928C54.1326 10.84 54.0566 10.724 54.0566 10.58C54.0566 10.428 54.0726 10.276 54.1046 10.124C54.1446 9.876 54.1766 9.512 54.2006 9.032C54.2246 8.552 54.2366 8.1 54.2366 7.676C54.2366 7.484 54.1886 7.3 54.0926 7.124C54.0046 6.94 53.8966 6.848 53.7686 6.848C53.7366 6.848 53.6766 6.864 53.5886 6.896C53.5086 6.928 53.4486 6.944 53.4086 6.944C53.3046 6.944 53.2086 6.896 53.1206 6.8C53.0406 6.704 53.0006 6.624 53.0006 6.56C53.0006 6.36 53.0966 6.192 53.2886 6.056C53.4886 5.912 53.6966 5.84 53.9126 5.84C54.2086 5.84 54.4646 5.94 54.6806 6.14C54.9046 6.34 55.0726 6.608 55.1846 6.944C55.3766 6.6 55.6006 6.332 55.8566 6.14C56.1206 5.94 56.4406 5.84 56.8166 5.84C57.5046 5.84 58.0046 6.148 58.3166 6.764C58.5006 6.468 58.7846 6.24 59.1686 6.08C59.5606 5.92 59.9446 5.84 60.3206 5.84C60.5926 5.84 60.8526 5.924 61.1006 6.092C61.3486 6.252 61.5446 6.468 61.6886 6.74C61.8406 7.004 61.9166 7.28 61.9166 7.568C61.9166 7.752 61.8966 8.156 61.8566 8.78C61.8486 8.884 61.8406 9 61.8326 9.128C61.8246 9.248 61.8206 9.376 61.8206 9.512C61.8206 9.68 61.8606 9.816 61.9406 9.92C62.0286 10.024 62.1406 10.088 62.2766 10.112C62.5486 10.176 62.6846 10.288 62.6846 10.448C62.6846 10.632 62.6006 10.78 62.4326 10.892C62.2646 10.996 62.0766 11.048 61.8686 11.048C61.4766 11.048 61.1766 10.936 60.9686 10.712C60.7686 10.48 60.6686 10.148 60.6686 9.716L60.7046 8.888ZM68.9942 10.424C68.9942 10.6 68.8982 10.748 68.7062 10.868C68.5142 10.988 68.3382 11.048 68.1782 11.048C67.8822 11.048 67.6422 11.012 67.4582 10.94C67.2822 10.86 67.1142 10.716 66.9542 10.508C66.7542 10.692 66.4742 10.832 66.1142 10.928C65.7542 11.016 65.4222 11.06 65.1182 11.06C64.6222 11.06 64.2102 10.928 63.8822 10.664C63.5622 10.392 63.4022 9.996 63.4022 9.476C63.4022 9.252 63.4702 9.028 63.6062 8.804C63.7422 8.572 63.9102 8.388 64.1102 8.252C64.3262 8.108 64.5702 8.012 64.8422 7.964C65.1142 7.908 65.4302 7.88 65.7902 7.88C65.9582 7.88 66.1582 7.912 66.3902 7.976C66.6222 8.04 66.8062 8.108 66.9422 8.18V7.988C66.9422 7.556 66.8342 7.26 66.6182 7.1C66.4102 6.932 66.0742 6.848 65.6102 6.848C65.4662 6.848 65.3342 6.872 65.2142 6.92C65.1022 6.96 64.9702 7.02 64.8182 7.1C64.6742 7.18 64.5382 7.22 64.4102 7.22C64.2982 7.22 64.1902 7.176 64.0862 7.088C63.9822 6.992 63.9302 6.892 63.9302 6.788C63.9302 6.452 64.1382 6.208 64.5542 6.056C64.9782 5.896 65.4102 5.816 65.8502 5.816C66.0742 5.816 66.3302 5.864 66.6182 5.96C66.9062 6.048 67.1502 6.172 67.3502 6.332C67.5902 6.532 67.7742 6.772 67.9022 7.052C68.0382 7.332 68.1062 7.636 68.1062 7.964C68.1062 8.068 68.0982 8.224 68.0822 8.432C68.0662 8.656 68.0582 8.848 68.0582 9.008L68.0462 9.332C68.0302 9.508 68.0222 9.648 68.0222 9.752C68.0222 9.848 68.0542 9.932 68.1182 10.004C68.1902 10.068 68.2742 10.1 68.3702 10.1L68.7062 10.088C68.7942 10.088 68.8622 10.124 68.9102 10.196C68.9662 10.26 68.9942 10.336 68.9942 10.424ZM65.1182 10.112C65.4622 10.112 65.7502 10.076 65.9822 10.004C66.2142 9.932 66.4942 9.8 66.8222 9.608C66.8542 9.472 66.8742 9.292 66.8822 9.068C66.4422 8.86 66.0782 8.756 65.7902 8.756C65.5182 8.756 65.2982 8.768 65.1302 8.792C64.9622 8.808 64.8102 8.876 64.6742 8.996C64.5382 9.116 64.4702 9.308 64.4702 9.572C64.4702 9.724 64.5422 9.852 64.6862 9.956C64.8382 10.06 64.9822 10.112 65.1182 10.112ZM70.0448 6.824C69.9728 6.824 69.9048 6.832 69.8408 6.848C69.7768 6.856 69.7128 6.86 69.6488 6.86C69.5608 6.86 69.4768 6.82 69.3968 6.74C69.3248 6.66 69.2888 6.588 69.2888 6.524C69.2888 6.316 69.3928 6.156 69.6008 6.044C69.8088 5.924 70.0208 5.864 70.2368 5.864C70.4208 5.864 70.6088 5.928 70.8008 6.056C71.0008 6.176 71.1488 6.332 71.2448 6.524C71.4528 6.276 71.7088 6.096 72.0128 5.984C72.3168 5.872 72.6328 5.816 72.9608 5.816C73.3288 5.816 73.6688 5.932 73.9808 6.164C74.3008 6.396 74.5528 6.692 74.7368 7.052C74.9208 7.404 75.0128 7.756 75.0128 8.108C75.0128 8.452 74.9768 8.76 74.9048 9.032C74.8328 9.296 74.7048 9.564 74.5208 9.836C74.3128 10.124 74.0328 10.36 73.6808 10.544C73.3368 10.728 72.9248 10.82 72.4448 10.82C72.3168 10.82 72.1608 10.788 71.9768 10.724C71.7928 10.652 71.6408 10.576 71.5208 10.496C71.4648 11.04 71.4368 11.512 71.4368 11.912C71.4368 12.152 71.4488 12.38 71.4728 12.596C71.4888 12.852 71.4968 13.036 71.4968 13.148C71.4968 13.324 71.4368 13.452 71.3168 13.532C71.1968 13.62 71.0648 13.664 70.9208 13.664C70.6328 13.664 70.4408 13.584 70.3448 13.424C70.2568 13.272 70.2128 13.052 70.2128 12.764C70.2448 12.076 70.2848 11.44 70.3328 10.856C70.3808 10.136 70.4048 9.024 70.4048 7.52C70.4048 7.376 70.3768 7.224 70.3208 7.064C70.2648 6.904 70.1728 6.824 70.0448 6.824ZM71.5688 9.308C71.6088 9.46 71.7208 9.588 71.9048 9.692C72.0968 9.788 72.2688 9.836 72.4208 9.836C72.8768 9.836 73.2168 9.712 73.4408 9.464C73.6088 9.288 73.7168 9.116 73.7648 8.948C73.8208 8.78 73.8488 8.512 73.8488 8.144C73.8488 7.856 73.7928 7.616 73.6808 7.424C73.5688 7.224 73.4328 7.08 73.2728 6.992C73.1128 6.896 72.9608 6.848 72.8168 6.848C72.4888 6.848 72.2208 6.948 72.0128 7.148C71.8128 7.34 71.6848 7.604 71.6288 7.94C71.5888 8.204 71.5688 8.66 71.5688 9.308Z" fill="black"/>
<line y1="13.5" x2="76" y2="13.5" stroke="black"/>
<path d="M75.5 13.5C77 13.35 80.1 12.24 80.5 9C80.9 5.76 85.3333 4.65 87.5 4.5" stroke="black"/>
<path d="M75.5 13.5C78.7 12.9 80.1667 11.25 80.5 10.5C82.5 8.1 86 7.5 87.5 7.5" stroke="black"/>
<path d="M75.5 13.5C79 12.5 79.5 12 80.5 11.5C82.9 10.3 86.1667 10.3333 87.5 10.5" stroke="black"/>
</svg>
